<svg id="Layer_1" data-name="Layer 1" xmlns="http://www.w3.org/2000/svg" width="24.01" height="23.64" viewBox="0 0 24.01 23.64">
  <title>ask</title>
  <g id="Ask">
    <path d="M412,390.55c0-2.61.25-2.36-2.4-2.36H390.4c-2.65,0-2.4-.25-2.4,2.36v18.9c0,2.61-.25,2.36,2.4,2.36h19.2c2.65,0,2.4.25,2.4-2.36v-18.9ZM411,411H389V389h22v22Zm-11.9-4h1.76v-2h-1.76v2ZM398,397a2.37,2.37,0,0,1,.44-0.88,2,2,0,0,1,.69-0.61,1.79,1.79,0,0,1,.92-0.2,2.52,2.52,0,0,1,1.66.52,2.11,2.11,0,0,1,.48,1.46,2.27,2.27,0,0,1-.79,1.89c-0.22.26-1.15,1.15-1.36,1.4a3.68,3.68,0,0,0-.55.88,3.32,3.32,0,0,0-.29,1.23v0.88h1.74v-0.66a2.76,2.76,0,0,1,.13-0.87,2.69,2.69,0,0,1,.35-0.65,3.36,3.36,0,0,1,.32-0.56c0.18-.18.44-0.35,0.63-0.52s0.44-.37.62-0.56a3.42,3.42,0,0,0,.37-0.63,3.25,3.25,0,0,0,.17-0.76,3.11,3.11,0,0,0,.23-0.94,3.67,3.67,0,0,0-.23-1.44,3.16,3.16,0,0,0-.77-1.1,4,4,0,0,0-1.22-.79,4.53,4.53,0,0,0-1.48-.19,4,4,0,0,0-1.59.31,3.13,3.13,0,0,0-1.13.88,4.35,4.35,0,0,0-.76,1.41,4,4,0,0,0-.21,1.53h1.51A3.55,3.55,0,0,1,398,397Z" transform="translate(-387.99 -388.18)" style="fill: #c7cdd9"/>
  </g>
</svg>
