<svg id="Layer_1" data-name="Layer 1" xmlns="http://www.w3.org/2000/svg" width="26" height="22" viewBox="0 0 26 22">
  <title>chat</title>
  <g id="Chat">
    <path d="M411.5,397H406v-7c0-.83-0.2-1.07-1-1.07H388c-0.83,0-1,.27-1,1.1v14.75a0.94,0.94,0,0,0,1.12,1.13h4.67c0,1,0,1.88,0,2a0.7,0.7,0,0,0,.93.29c0.7-.58,2-1.7,2.67-2.31h8a1.82,1.82,0,0,0,1.59-1.76V398h6v9h-6v2l-1.06-2H399l0-1-1,0v0.87c0,0.83.16,1.15,1,1.15h4.94a11.15,11.15,0,0,0,2.08,2.91,0.73,0.73,0,0,0,1-.29c0-.14,0-1.65,0-2.61h5c0.83,0,1-.32,1-1.15V398.2A1.25,1.25,0,0,0,411.5,397ZM405,405h-9l-2,2v-2H388V390h17ZM392.17,395H399a0.46,0.46,0,0,0,.51-0.44v0A0.56,0.56,0,0,0,399,394h-6.82a0.54,0.54,0,0,0-.51.55v0A0.46,0.46,0,0,0,392.17,395ZM398,406h0C397.91,406,397.93,406,398,406Zm-5.85-8h4.57a0.46,0.46,0,0,0,.51-0.44v0a0.53,0.53,0,0,0-.51-0.53h-4.57a0.51,0.51,0,0,0-.51.51v0A0.46,0.46,0,0,0,392.17,398Zm0,3h9.07a0.46,0.46,0,0,0,.51-0.44v0a0.56,0.56,0,0,0-.51-0.56h-9.07a0.54,0.54,0,0,0-.51.55v0A0.46,0.46,0,0,0,392.17,401Z" transform="translate(-387 -389)" style="fill: #fff;fill-rule: evenodd"/>
  </g>
</svg>
