<svg id="Layer_1" data-name="Layer 1" xmlns="http://www.w3.org/2000/svg" width="21" height="24" viewBox="0 0 21 24">
  <title>company</title>
  <g id="Companies">
    <path d="M393,395h3v-3h-3v3Zm0,6.5h3v-3h-3v3Zm0,6.5h3v-3h-3v3Zm15.5-14H400v-4.5a1.5,1.5,0,0,0-1.5-1.5h-8a1.5,1.5,0,0,0-1.5,1.5v21a1.5,1.5,0,0,0,1.5,1.5h18a1.5,1.5,0,0,0,1.5-1.5v-15A1.5,1.5,0,0,0,408.5,394Zm-9.5,1.5v15a0.5,0.5,0,0,1-.5.5h-8a0.5,0.5,0,0,1-.5-0.5v-21a0.5,0.5,0,0,1,.5-0.5h8a0.5,0.5,0,0,1,.5.5v6Zm10,15a0.5,0.5,0,0,1-.5.5h-8a0.5,0.5,0,0,1-.5-0.5v-15a0.5,0.5,0,0,1,.5-0.5h8a0.5,0.5,0,0,1,.5.5v15Zm-6-9h3v-3h-3v3Zm0,6.5h3v-3h-3v3Z" transform="translate(-389 -388)" style="fill: #c7cdd9"/>
  </g>
</svg>
