<svg id="Layer_1" data-name="Layer 1" xmlns="http://www.w3.org/2000/svg" width="23.88" height="23" viewBox="0 0 23.88 23">
  <title>home</title>
  <g id="Feed">
    <path d="M407.57,401.7a0.61,0.61,0,0,0-.58.71V411h-4v-4.35a0.69,0.69,0,0,0-.67-0.69h-4.66a0.71,0.71,0,0,0-.71.69V411h-4v-8.66c0-.37,0-0.62-0.39-0.62a0.57,0.57,0,0,0-.6.62v9a0.68,0.68,0,0,0,.67.68h4.7a0.68,0.68,0,0,0,.67-0.68v-4.2h4v4.2a0.69,0.69,0,0,0,.69.68h4.63a0.68,0.68,0,0,0,.67-0.68v-8.91C408,402,407.93,401.7,407.57,401.7Zm4.31-.85L406,395v-4.2c0-.4-0.11-0.57-0.5-0.57a0.49,0.49,0,0,0-.53.59v3l-4.48-4.58A0.66,0.66,0,0,0,400,389a0.68,0.68,0,0,0-.49.22l-11.35,11.55c-0.27.28,0.16,0.55,0.45,0.8s0.81-.28,1.09-0.56L400,390l10.68,11.32a0.86,0.86,0,0,0,.54.28,0.35,0.35,0,0,0,.34,0C411.82,401.34,412.15,401.13,411.88,400.85Z" transform="translate(-388.1 -389)" style="fill: #c7cdd9"/>
  </g>
</svg>
