<svg id="Layer_1" data-name="Layer 1" xmlns="http://www.w3.org/2000/svg" width="24" height="24" viewBox="0 0 24 24">
  <title>notify</title>
  <g id="Notifications">
    <path d="M411.87,407.94a17.09,17.09,0,0,1-2.12-4.53,42.56,42.56,0,0,1-1.28-6.67,8,8,0,0,0-1.7-4,7.39,7.39,0,0,0-1.34-1.24,8.24,8.24,0,0,0-2.75-1.33,2.57,2.57,0,0,0-1-1.51A2.7,2.7,0,0,0,400,388a2.67,2.67,0,0,0-1.71.61,2.59,2.59,0,0,0-.94,1.51,8.25,8.25,0,0,0-2.76,1.33,7.42,7.42,0,0,0-1.34,1.24c-0.77.92-1,2.61-1.24,4.3a31.86,31.86,0,0,1-1.74,6.41,16.35,16.35,0,0,1-2.11,4.37,0.71,0.71,0,0,0-.14.4,1.29,1.29,0,0,0,.09.49,0.7,0.7,0,0,0,.64.37h22.54a0.7,0.7,0,0,0,.64-0.37,0.85,0.85,0,0,0,.08-0.35A0.67,0.67,0,0,0,411.87,407.94ZM390,408a21.26,21.26,0,0,0,1.84-4.9,57.25,57.25,0,0,0,1.15-6.18,6,6,0,0,1,2.61-4.43,7.32,7.32,0,0,1,2.58-1.1,0.69,0.69,0,0,0,.54-0.69v0a1.27,1.27,0,0,1,1.28-1.24,1.26,1.26,0,0,1,1.28,1.24v0a0.72,0.72,0,0,0,.56.69,7.23,7.23,0,0,1,2.57,1.1,6,6,0,0,1,1.17,1,6.67,6.67,0,0,1,1.44,3.41,52.52,52.52,0,0,0,1.15,6.17A21.85,21.85,0,0,0,410,408H390Zm8.49,3.37A2.07,2.07,0,0,0,400,412a2,2,0,0,0,1.5-.63,2,2,0,0,0,.63-1.48h-4.27A2,2,0,0,0,398.49,411.37Z" transform="translate(-388 -388)" style="fill: #fff;fill-rule: evenodd"/>
  </g>
</svg>
