<?xml version="1.0" encoding="utf-8"?>
<!DOCTYPE svg PUBLIC "-//W3C//DTD SVG 1.1//EN" "http://www.w3.org/Graphics/SVG/1.1/DTD/svg11.dtd">
<svg version="1.1" baseProfile="full"
 xmlns="http://www.w3.org/2000/svg"
 xmlns:xlink="http://www.w3.org/1999/xlink"
 xmlns:ev="http://www.w3.org/2001/xml-events" 
  height="26px" 
  width="26px" 
>
<path fill="rgb( 199, 205, 217 )"
 d="M25,22.452 C25,25.062 25.251,24.815 22.6,24.815 C22.6,24.815 3.40000000000001,24.815 3.40000000000001,24.815 C0.749,24.815 1,25.062 1,22.452 C1,22.452 1,3.548 1,3.548 C1,0.93799999999999 0.749,1.185 3.40000000000001,1.185 C3.40000000000001,1.185 22.6,1.185 22.6,1.185 C25.251,1.185 25,0.93799999999999 25,3.548 C25,3.548 25,22.452 25,22.452 ZM23.987,1.99100000000001 C23.987,1.99100000000001 2.012,1.99100000000001 2.012,1.99100000000001 C2.012,1.99100000000001 2.012,23.978 2.012,23.978 C2.012,23.978 23.987,23.978 23.987,23.978 C23.987,23.978 23.987,1.99100000000001 23.987,1.99100000000001 ZM10.328,8.03399999999999 C10.662,7.666 10.975,7.36000000000001 11.458,7.15600000000001 C11.942,6.952 12.45,6.84999999999999 13.049,6.84999999999999 C13.59,6.84999999999999 14.082,6.88900000000001 14.525,7.042 C14.969,7.19499999999999 15.426,7.547 15.749,7.83600000000001 C16.071,8.125 16.342,8.51599999999999 16.521,8.934 C16.699,9.35400000000001 16.755,9.83500000000001 16.755,10.378 C16.755,10.73 16.608,11.044 16.522,11.321 C16.435,11.599 16.492,11.851 16.354,12.077 C16.215,12.304 16.161,12.513 15.983,12.706 C15.804,12.898 15.548,13.085 15.364,13.266 C15.18,13.436 14.917,13.609 14.739,13.785 C14.56,13.96 14.565,14.147 14.421,14.345 C14.277,14.544 14.162,14.759 14.076,14.991 C13.99,15.223 13.946,15.569 13.946,15.863 C13.946,15.863 13.946,16.525 13.946,16.525 C13.946,16.525 12.204,16.525 12.204,16.525 C12.204,16.525 12.204,15.645 12.204,15.645 C12.227,15.169 12.337,14.748 12.492,14.414 C12.648,14.08 12.821,13.799 13.046,13.538 C13.262,13.287 14.184,12.391 14.407,12.136 C14.917,11.553 15.245,11.177 15.193,10.243 C15.147,9.62 15.072,9.13300000000001 14.709,8.78200000000001 C14.347,8.43100000000001 13.67,8.25899999999999 13.049,8.25899999999999 C12.634,8.25899999999999 12.427,8.31200000000001 12.128,8.459 C11.828,8.607 11.64,8.821 11.439,9.06999999999999 C11.237,9.31999999999999 11.09,9.614 10.998,9.95400000000001 C10.906,10.293 10.86,10.574 10.86,10.97 C10.86,10.97 9.351,10.97 9.351,10.97 C9.34,10.392 9.386,9.94300000000001 9.56399999999999,9.44399999999999 C9.743,8.946 9.994,8.40199999999999 10.328,8.03399999999999 ZM13.85,19.956 C13.85,19.956 12.091,19.956 12.091,19.956 C12.091,19.956 12.091,17.964 12.091,17.964 C12.091,17.964 13.85,17.964 13.85,17.964 C13.85,17.964 13.85,19.956 13.85,19.956 Z "/>
</svg>
