<?xml version="1.0" encoding="utf-8"?>
<!DOCTYPE svg PUBLIC "-//W3C//DTD SVG 1.1//EN" "http://www.w3.org/Graphics/SVG/1.1/DTD/svg11.dtd">
<svg version="1.1" baseProfile="full"
 xmlns="http://www.w3.org/2000/svg"
 xmlns:xlink="http://www.w3.org/1999/xlink"
 xmlns:ev="http://www.w3.org/2001/xml-events" 
  height="24px" 
  width="26px" 
>
<path fill="rgb( 255, 255, 255 )"
 d="M25,20.004 C25,20.004 22.3,20.015 19.986,20.015 C19.997,20.974 19.994,22.486 19.973,22.624 C19.933,22.883 19.289,23.134 19.014,22.916 C18.318,22.338 17.999,21.719 16.938,20.004 C16.774,20.004 16.1609999999999,20.004 16,20.004 C13.376,20.004 12,20.004 12,20.004 C11.173,20.004 11.015,19.683 11.015,18.852 C11.015,18.852 11.015,17.984 11.015,17.984 C11.2569999999999,17.994 12.048,18.012 12.048,18.012 C12.048,18.012 12.014,18.989 12.014,18.989 C12.014,18.989 17.937,19 17.937,19 C17.937,19 19,21 19,21 C19,21 19,19.006 19,19.006 C19,19.006 25,19.006 25,19.006 C25,19.006 25,10.019 25,10.019 C25,10.019 18.98,10.019 18.98,10.019 C18.98,10.019 18.98,9.035 18.98,9.035 C18.98,9.035 24.502,9.035 24.502,9.035 C25.329,9.035 25.999,9.366 25.999,10.198 C25.999,10.198 25.999,18.852 25.999,18.852 C25.999,19.683 25.827,20.004 25,20.004 ZM11.015,17.979 C10.614,17.979 10.2329999999999,17.979 9.89200000000005,17.979 C9.73099999999999,17.979 9.56899999999996,17.979 9.40599999999995,17.979 C8.71400000000006,18.589 7.43399999999997,19.71 6.73699999999997,20.287 C6.46199999999999,20.506 5.85000000000002,20.255 5.80999999999995,19.996 C5.78899999999999,19.858 5.78599999999994,18.938 5.79700000000003,17.979 C3.48299999999995,17.979 1.125,17.979 1.125,17.979 C0.298,17.979 0.00199999999995,17.679 0.00199999999995,16.847 C0.00199999999995,16.847 0.00199999999995,2.099 0.00199999999995,2.099 C0.00199999999995,1.267 0.14200000000005,0.998 0.96900000000005,0.998 C0.96900000000005,0.998 17.952,0.998 17.952,0.998 C18.778,0.998 18.98,1.236 18.98,2.067 C18.98,2.067 18.98,16.223 18.98,16.223 C18.98,17.055 18.216,17.979 17.389,17.979 C17.389,17.979 13.702,17.979 11.015,17.979 C11.015,17.979 11.015,17.984 11.015,17.984 C10.932,17.981 10.912,17.979 11.015,17.979 ZM17.956,16.979 C17.956,16.979 17.99,2.026 17.99,2.026 C17.99,2.026 1.00300000000004,2.035 1.00300000000004,2.035 C1.00300000000004,2.035 1.00300000000004,16.979 1.00300000000004,16.979 C1.00300000000004,16.979 6.94799999999998,16.979 6.94799999999998,16.979 C6.94799999999998,16.979 6.96000000000004,18.94 6.96000000000004,18.94 C6.96000000000004,18.94 8.98000000000002,16.979 8.98000000000002,16.979 C8.98000000000002,16.979 17.956,16.979 17.956,16.979 ZM4.65700000000004,12.583 C4.65700000000004,12.583 4.65700000000004,12.54 4.65700000000004,12.54 C4.65700000000004,12.256 4.88499999999999,11.994 5.16800000000001,11.994 C5.16800000000001,11.994 14.2329999999999,11.994 14.2329999999999,11.994 C14.515,11.994 14.744,12.274 14.744,12.557 C14.744,12.557 14.744,12.583 14.744,12.583 C14.744,12.867 14.515,13.026 14.2329999999999,13.026 C14.2329999999999,13.026 5.16800000000001,13.026 5.16800000000001,13.026 C4.88499999999999,13.026 4.65700000000004,12.867 4.65700000000004,12.583 ZM11.987,7.033 C11.987,7.033 5.16800000000001,7.033 5.16800000000001,7.033 C4.88499999999999,7.033 4.65700000000004,6.874 4.65700000000004,6.59 C4.65700000000004,6.59 4.65700000000004,6.546 4.65700000000004,6.546 C4.65700000000004,6.263 4.88499999999999,6.001 5.16800000000001,6.001 C5.16800000000001,6.001 11.987,6.001 11.987,6.001 C12.269,6.001 12.498,6.281 12.498,6.564 C12.498,6.564 12.498,6.59 12.498,6.59 C12.498,6.874 12.269,7.033 11.987,7.033 ZM5.16800000000001,9.013 C5.16800000000001,9.013 9.74099999999999,9.013 9.74099999999999,9.013 C10.023,9.013 10.252,9.262 10.252,9.545 C10.252,9.545 10.252,9.571 10.252,9.571 C10.252,9.855 10.023,10.014 9.74099999999999,10.014 C9.74099999999999,10.014 5.16800000000001,10.014 5.16800000000001,10.014 C4.88499999999999,10.014 4.65700000000004,9.855 4.65700000000004,9.571 C4.65700000000004,9.571 4.65700000000004,9.527 4.65700000000004,9.527 C4.65700000000004,9.244 4.88499999999999,9.013 5.16800000000001,9.013 Z "/>
</svg>
