<?xml version="1.0" encoding="utf-8"?>
<!DOCTYPE svg PUBLIC "-//W3C//DTD SVG 1.1//EN" "http://www.w3.org/Graphics/SVG/1.1/DTD/svg11.dtd">
<svg version="1.1" baseProfile="full"
 xmlns="http://www.w3.org/2000/svg"
 xmlns:xlink="http://www.w3.org/1999/xlink"
 xmlns:ev="http://www.w3.org/2001/xml-events" 
  height="24px" 
  width="21px" 
>
<path fill="rgb( 199, 205, 217 )"
 d="M19.5,24 C19.5,24 11.5,24 11.5,24 C11.5,24 9.624,24 9.624,24 C9.624,24 9.624,23.975 9.624,23.975 C9.58099999999999,23.979 9.54400000000001,24 9.5,24 C9.5,24 1.5,24 1.5,24 C0.673,24 0,23.327 0,22.5 C0,22.5 0,1.5 0,1.5 C0,0.673 0.673,0 1.5,0 C1.5,0 9.5,0 9.5,0 C10.327,0 11,0.673 11,1.5 C11,1.5 11,6 11,6 C11,6 11.5,6 11.5,6 C11.5,6 12,6 12,6 C12,6 19.5,6 19.5,6 C20.327,6 21,6.673 21,7.5 C21,7.5 21,22.5 21,22.5 C21,23.327 20.327,24 19.5,24 ZM10,7.5 C10,7.5 10,1.5 10,1.5 C10,1.22399999999999 9.77600000000001,1 9.5,1 C9.5,1 1.5,1 1.5,1 C1.22399999999999,1 1,1.22399999999999 1,1.5 C1,1.5 1,22.5 1,22.5 C1,22.775 1.22399999999999,23 1.5,23 C1.5,23 9.5,23 9.5,23 C9.77600000000001,23 10,22.775 10,22.5 C10,22.5 10,7.5 10,7.5 ZM20,7.5 C20,7.22399999999999 19.776,7 19.5,7 C19.5,7 11.5,7 11.5,7 C11.224,7 11,7.22399999999999 11,7.5 C11,7.5 11,22.5 11,22.5 C11,22.775 11.224,23 11.5,23 C11.5,23 19.5,23 19.5,23 C19.776,23 20,22.775 20,22.5 C20,22.5 20,7.5 20,7.5 ZM14,17 C14,17 17,17 17,17 C17,17 17,20 17,20 C17,20 14,20 14,20 C14,20 14,17 14,17 ZM14,10.5 C14,10.5 17,10.5 17,10.5 C17,10.5 17,13.5 17,13.5 C17,13.5 14,13.5 14,13.5 C14,13.5 14,10.5 14,10.5 ZM4,17 C4,17 7,17 7,17 C7,17 7,20 7,20 C7,20 4,20 4,20 C4,20 4,17 4,17 ZM4,10.5 C4,10.5 7,10.5 7,10.5 C7,10.5 7,13.5 7,13.5 C7,13.5 4,13.5 4,13.5 C4,13.5 4,10.5 4,10.5 ZM4,4 C4,4 7,4 7,4 C7,4 7,7 7,7 C7,7 4,7 4,7 C4,7 4,4 4,4 Z "/>
</svg>
