<?xml version="1.0" encoding="utf-8"?>
<!DOCTYPE svg PUBLIC "-//W3C//DTD SVG 1.1//EN" "http://www.w3.org/Graphics/SVG/1.1/DTD/svg11.dtd">
<svg version="1.1" baseProfile="full"
 xmlns="http://www.w3.org/2000/svg"
 xmlns:xlink="http://www.w3.org/1999/xlink"
 xmlns:ev="http://www.w3.org/2001/xml-events" 
  height="24px" 
  width="26px" 
>
<path fill="rgb( 199, 205, 217 )"
 d="M24.572,13.602 C24.433,13.717 24.418,13.648 24.228,13.648 C24.014,13.648 23.799,13.481 23.686,13.365 C23.686,13.365 13.002,2.048 13.002,2.048 C13.002,2.048 2.73099999999999,13.018 2.73099999999999,13.018 C2.459,13.295 1.89699999999999,13.87 1.64400000000001,13.574 C1.35400000000001,13.319 0.917,13.047 1.19,12.77 C1.19,12.77 12.541,1.21599999999999 12.541,1.21599999999999 C12.68,1.07599999999999 12.844,0.997 13.034,0.997 C13.198,0.997 13.362,1.074 13.501,1.21599999999999 C13.501,1.21599999999999 17.977,5.795 17.977,5.795 C17.977,5.795 17.977,2.81699999999999 17.977,2.81699999999999 C17.977,2.42 18.143,2.223 18.51,2.223 C18.901,2.223 19.01,2.398 19.01,2.79600000000001 C19.01,2.79600000000001 19.01,6.993 19.01,6.993 C19.01,6.993 24.878,12.847 24.878,12.847 C25.149,13.126 24.824,13.344 24.572,13.602 ZM5.58199999999999,13.707 C5.97399999999999,13.707 5.976,13.951 5.976,14.324 C5.976,14.324 5.976,22.979 5.976,22.979 C5.976,22.979 9.97,22.979 9.97,22.979 C9.97,22.979 9.97,18.628 9.97,18.628 C9.97,18.257 10.286,17.934 10.678,17.934 C10.678,17.934 15.333,17.934 15.333,17.934 C15.7,17.934 16.003,18.257 16.003,18.628 C16.003,18.628 16.003,22.979 16.003,22.979 C16.003,22.979 19.986,22.979 19.986,22.979 C19.986,22.979 19.986,14.407 19.986,14.407 C19.986,14.007 20.176,13.7 20.567,13.7 C20.933,13.7 20.999,14.007 20.999,14.407 C20.999,14.407 20.999,23.318 20.999,23.318 C20.999,23.69 20.696,24 20.33,24 C20.33,24 15.699,24 15.699,24 C15.307,24 15.004,23.69 15.004,23.318 C15.004,23.318 15.004,19.121 15.004,19.121 C15.004,19.121 11.012,19.121 11.012,19.121 C11.012,19.121 11.012,23.318 11.012,23.318 C11.012,23.69 10.708,24 10.342,24 C10.342,24 5.64699999999999,24 5.64699999999999,24 C5.28100000000001,24 4.97800000000001,23.69 4.97800000000001,23.318 C4.97800000000001,23.318 4.97800000000001,14.324 4.97800000000001,14.324 C4.97800000000001,13.951 5.21600000000001,13.707 5.58199999999999,13.707 Z "/>
</svg>
