<?xml version="1.0" encoding="utf-8"?>
<!DOCTYPE svg PUBLIC "-//W3C//DTD SVG 1.1//EN" "http://www.w3.org/Graphics/SVG/1.1/DTD/svg11.dtd">
<svg version="1.1" baseProfile="full"
 xmlns="http://www.w3.org/2000/svg"
 xmlns:xlink="http://www.w3.org/1999/xlink"
 xmlns:ev="http://www.w3.org/2001/xml-events" 
  height="25px" 
  width="25px" 
>
<path fill="rgb( 255, 255, 255 )"
 d="M23.924,20.677 C23.78,20.922 23.5700000000001,21.052 23.282,21.052 C23.282,21.052 0.73800000000006,21.052 0.73800000000006,21.052 C0.45000000000005,21.052 0.23900000000003,20.923 0.096,20.677 C0.029,20.561 0.005,20.3 0.005,20.183 C0.005,20.041 0.05999999999995,19.914 0.149,19.782 C1.08100000000002,18.414 1.779,16.949 2.25699999999995,15.413 C2.73500000000001,13.873 3.62,11.908 4,9 C4.22199999999998,7.306 4.46900000000005,5.614 5.24099999999999,4.696 C5.63400000000001,4.231 6.07799999999997,3.815 6.577,3.455 C7.58299999999997,2.73 8.39700000000005,2.395 9.33900000000006,2.124 C9.47000000000003,1.516 9.78399999999999,1.012 10.282,0.612 C10.779,0.211 11.355,0.004 11.997,0.004 C12.652,0.004 13.225,0.214 13.725,0.612 C14.2329999999999,1.015 14.55,1.516 14.681,2.124 C15.623,2.395 16.432,2.736 17.43,3.455 C17.938,3.821 18.379,4.237 18.765,4.696 C19.544,5.62 20.246,7.049 20.467,8.743 C20.848,11.651 21.273,13.877 21.751,15.413 C22.229,16.953 22.934,18.575 23.871,19.94 C23.955,20.062 24.002,20.185 24.002,20.328 C24.002,20.444 23.976,20.56 23.924,20.677 ZM20.1660000000001,15.09 C19.747,13.526 19.366,11.471 19.014,8.924 C18.816,7.489 18.25,6.291 17.574,5.511 C17.242,5.127 16.851,4.792 16.409,4.49 C15.528,3.887 14.744,3.609 13.843,3.391 C13.513,3.311 13.28,3.029 13.28,2.706 C13.28,2.706 13.28,2.68 13.28,2.68 C13.28,1.995 12.717,1.439 11.997,1.439 C11.303,1.439 10.7140000000001,1.994 10.7140000000001,2.68 C10.7140000000001,2.68 10.7140000000001,2.706 10.7140000000001,2.706 C10.7140000000001,3.029 10.503,3.319 10.177,3.391 C9.27200000000005,3.591 8.5,3.899 7.59799999999996,4.49 C6.327,5.322 5.30899999999997,6.712 4.99300000000005,8.924 C4.62800000000004,11.469 4.25300000000004,13.537 3.84100000000001,15.103 C3.42899999999997,16.666 2.78499999999997,18.668 2,20 C2,20 22,20 22,20 C21.2140000000001,18.655 20.585,16.654 20.1660000000001,15.09 ZM13.509,23.375 C13.098,23.794 12.605,24.006 12.0069999999999,24.006 C11.423,24.006 10.922,23.8 10.491,23.375 C10.074,22.963 9.86500000000001,22.468 9.86500000000001,21.892 C9.86500000000001,21.892 14.134,21.892 14.134,21.892 C14.134,22.468 13.918,22.956 13.509,23.375 Z "/>
</svg>
