<?xml version="1.0" encoding="utf-8"?>
<!DOCTYPE svg PUBLIC "-//W3C//DTD SVG 1.1//EN" "http://www.w3.org/Graphics/SVG/1.1/DTD/svg11.dtd">
<svg version="1.1" baseProfile="full"
 xmlns="http://www.w3.org/2000/svg"
 xmlns:xlink="http://www.w3.org/1999/xlink"
 xmlns:ev="http://www.w3.org/2001/xml-events" 
  height="17px" 
  width="17px" 
>
<path fill="rgb( 142, 188, 77 )"
 d="M15.802,15.82 C15.577,16.046 15.212,16.046 14.987,15.82 C14.987,15.82 11.056,11.921 11.056,11.921 C9.88400000000001,12.904 8.39400000000001,13.519 6.74700000000001,13.519 C3.02100000000002,13.519 0,10.493 0,6.76 C0,3.026 3.02100000000002,0 6.74700000000001,0 C10.472,0 13.493,3.026 13.493,6.76 C13.493,8.424 12.869,9.929 11.873,11.107 C11.873,11.107 15.802,15.004 15.802,15.004 C16.027,15.229 16.027,15.595 15.802,15.82 ZM6.76299999999998,1.211 C3.69900000000001,1.211 1.21600000000001,3.702 1.21600000000001,6.774 C1.21600000000001,9.847 3.69900000000001,12.338 6.76299999999998,12.338 C9.82600000000002,12.338 12.31,9.847 12.31,6.774 C12.31,3.702 9.82600000000002,1.211 6.76299999999998,1.211 Z "/>
</svg>
