<?xml version="1.0" encoding="utf-8"?>
<!DOCTYPE svg PUBLIC "-//W3C//DTD SVG 1.1//EN" "http://www.w3.org/Graphics/SVG/1.1/DTD/svg11.dtd">
<svg version="1.1" baseProfile="full"
 xmlns="http://www.w3.org/2000/svg"
 xmlns:xlink="http://www.w3.org/1999/xlink"
 xmlns:ev="http://www.w3.org/2001/xml-events" 
  height="24px" 
  width="19px" 
>
<path fill="rgb( 199, 205, 217 )"
 d="M17.5,24 C17.5,24 1.5,24 1.5,24 C0.673,24 0,23.327 0,22.5 C0,22.5 0,1.5 0,1.5 C0,0.673 0.673,0 1.5,0 C1.5,0 17.5,0 17.5,0 C18.327,0 19,0.673 19,1.5 C19,1.5 19,22.5 19,22.5 C19,23.327 18.327,24 17.5,24 ZM18,1.5 C18,1.22399999999999 17.776,1 17.5,1 C17.5,1 1.5,1 1.5,1 C1.22399999999999,1 1,1.22399999999999 1,1.5 C1,1.5 1,22.5 1,22.5 C1,22.775 1.22399999999999,23 1.5,23 C1.5,23 17.5,23 17.5,23 C17.776,23 18,22.775 18,22.5 C18,22.5 18,1.5 18,1.5 ZM3,19 C3,19 16,19 16,19 C16,19 16,21 16,21 C16,21 3,21 3,21 C3,21 3,19 3,19 ZM3,15 C3,15 16,15 16,15 C16,15 16,17 16,17 C16,17 3,17 3,17 C3,17 3,15 3,15 ZM3,11 C3,11 16,11 16,11 C16,11 16,13 16,13 C16,13 3,13 3,13 C3,13 3,11 3,11 ZM3,7 C3,7 16,7 16,7 C16,7 16,9 16,9 C16,9 3,9 3,9 C3,9 3,7 3,7 ZM7,3 C7,3 16,3 16,3 C16,3 16,5 16,5 C16,5 7,5 7,5 C7,5 7,3 7,3 Z "/>
</svg>
