<?xml version="1.0" encoding="UTF-8"?><!DOCTYPE svg PUBLIC "-//W3C//DTD SVG 1.1//EN" "http://www.w3.org/Graphics/SVG/1.1/DTD/svg11.dtd"><svg xmlns="http://www.w3.org/2000/svg"><symbol id="icon-ask" viewBox="0 0 24.01 23.64">
    <title>
        ask
    </title>
    <path d="M24.01 2.37c0-2.61.25-2.36-2.4-2.36H2.41C-.24.01.01-.24.01 2.37v18.9c0 2.61-.25 2.36 2.4 2.36h19.2c2.65 0 2.4.25 2.4-2.36V2.37zm-1 20.45h-22v-22h22v22zm-11.9-4h1.76v-2h-1.76v2zm-1.1-10a2.37 2.37 0 0 1 .44-.88 2 2 0 0 1 .69-.61 1.79 1.79 0 0 1 .92-.2 2.52 2.52 0 0 1 1.66.52 2.11 2.11 0 0 1 .48 1.46 2.27 2.27 0 0 1-.79 1.89c-.22.26-1.15 1.15-1.36 1.4a3.68 3.68 0 0 0-.55.88 3.32 3.32 0 0 0-.29 1.23v.88h1.74v-.66a2.76 2.76 0 0 1 .13-.87 2.69 2.69 0 0 1 .35-.65 3.36 3.36 0 0 1 .32-.56c.18-.18.44-.35.63-.52s.44-.37.62-.56a3.42 3.42 0 0 0 .37-.63 3.25 3.25 0 0 0 .17-.76 3.11 3.11 0 0 0 .23-.94 3.67 3.67 0 0 0-.23-1.44 3.16 3.16 0 0 0-.77-1.1 4 4 0 0 0-1.22-.79 4.53 4.53 0 0 0-1.48-.19 4 4 0 0 0-1.59.31 3.13 3.13 0 0 0-1.13.88 4.35 4.35 0 0 0-.76 1.41 4 4 0 0 0-.21 1.53h1.51a3.55 3.55 0 0 1 .12-1.03z"/>
</symbol><symbol id="icon-chat" viewBox="0 0 26 22">
    <title>
        chat
    </title>
    <path d="M24.5 8H19V1c0-.83-.2-1.07-1-1.07H1c-.83 0-1 .27-1 1.1v14.75a.94.94 0 0 0 1.12 1.13h4.67v2a.7.7 0 0 0 .93.29c.7-.58 2-1.7 2.67-2.31h8a1.82 1.82 0 0 0 1.59-1.76V9h6v9h-6v2l-1.06-2H12v-1h-1v.87c0 .83.16 1.15 1 1.15h4.94a11.15 11.15 0 0 0 2.08 2.91.73.73 0 0 0 1-.29v-2.61h5c.83 0 1-.32 1-1.15V9.2A1.25 1.25 0 0 0 24.5 8zM18 16H9l-2 2v-2H1V1h17zM5.17 6H12a.46.46 0 0 0 .51-.44A.56.56 0 0 0 12 5H5.18a.54.54 0 0 0-.51.55.46.46 0 0 0 .5.45zM11 17c-.09 0-.07 0 0 0zM5.15 9h4.57a.46.46 0 0 0 .51-.44.53.53 0 0 0-.51-.53H5.15a.51.51 0 0 0-.51.51.46.46 0 0 0 .53.46zm0 3h9.07a.46.46 0 0 0 .51-.44.56.56 0 0 0-.51-.56H5.15a.54.54 0 0 0-.51.55.46.46 0 0 0 .53.45z" fill-rule="evenodd"/>
</symbol><symbol id="icon-company" viewBox="0 0 21 24">
    <title>
        company
    </title>
    <path d="M4 7h3V4H4v3zm0 6.5h3v-3H4v3zM4 20h3v-3H4v3zM19.5 6H11V1.5A1.5 1.5 0 0 0 9.5 0h-8A1.5 1.5 0 0 0 0 1.5v21A1.5 1.5 0 0 0 1.5 24h18a1.5 1.5 0 0 0 1.5-1.5v-15A1.5 1.5 0 0 0 19.5 6zM10 7.5v15a.5.5 0 0 1-.5.5h-8a.5.5 0 0 1-.5-.5v-21a.5.5 0 0 1 .5-.5h8a.5.5 0 0 1 .5.5v6zm10 15a.5.5 0 0 1-.5.5h-8a.5.5 0 0 1-.5-.5v-15a.5.5 0 0 1 .5-.5h8a.5.5 0 0 1 .5.5v15zm-6-9h3v-3h-3v3zm0 6.5h3v-3h-3v3z"/>
</symbol><symbol id="icon-facebook" viewBox="0 0 10 19">
    <title>
        facebook
    </title>
    <path d="M9.766.157v2.946H8.014c-.64 0-1.071.134-1.295.402-.223.268-.335.67-.335 1.205v2.11h3.27l-.435 3.303H6.384v8.471H2.97v-8.47H.123V6.82H2.97V4.387c0-1.384.387-2.457 1.161-3.22C4.904.404 5.934.023 7.222.023c1.093 0 1.941.045 2.544.134z" fill-rule="evenodd"/>
</symbol><symbol id="icon-home" viewBox="0 0 23.88 23">
    <title>
        home
    </title>
    <path d="M19.47 12.7a.61.61 0 0 0-.58.71V22h-4v-4.35a.69.69 0 0 0-.67-.69H9.56a.71.71 0 0 0-.71.69V22h-4v-8.66c0-.37 0-.62-.39-.62a.57.57 0 0 0-.6.62v9a.68.68 0 0 0 .67.68h4.7a.68.68 0 0 0 .67-.68v-4.2h4v4.2a.69.69 0 0 0 .69.68h4.63a.68.68 0 0 0 .67-.68v-8.91c.01-.43-.06-.73-.42-.73zm4.31-.85L17.9 6V1.8c0-.4-.11-.57-.5-.57a.49.49 0 0 0-.53.59v3L12.39.24A.66.66 0 0 0 11.9 0a.68.68 0 0 0-.49.22L.06 11.77c-.27.28.16.55.45.8s.81-.28 1.09-.56L11.9 1l10.68 11.32a.86.86 0 0 0 .54.28.35.35 0 0 0 .34 0c.26-.26.59-.47.32-.75z"/>
</symbol><symbol id="icon-notify" viewBox="0 0 24 24">
    <title>
        notify
    </title>
    <path d="M23.87 19.94a17.09 17.09 0 0 1-2.12-4.53 42.56 42.56 0 0 1-1.28-6.67 8 8 0 0 0-1.7-4 7.39 7.39 0 0 0-1.34-1.24 8.24 8.24 0 0 0-2.75-1.33 2.57 2.57 0 0 0-1-1.51A2.7 2.7 0 0 0 12 0a2.67 2.67 0 0 0-1.71.61 2.59 2.59 0 0 0-.94 1.51 8.25 8.25 0 0 0-2.76 1.33 7.42 7.42 0 0 0-1.34 1.24c-.77.92-1 2.61-1.24 4.3a31.86 31.86 0 0 1-1.74 6.41 16.35 16.35 0 0 1-2.11 4.37.71.71 0 0 0-.14.4 1.29 1.29 0 0 0 .09.49.7.7 0 0 0 .64.37h22.54a.7.7 0 0 0 .64-.37.85.85 0 0 0 .08-.35.67.67 0 0 0-.14-.37zM2 20a21.26 21.26 0 0 0 1.84-4.9 57.25 57.25 0 0 0 1.15-6.18A6 6 0 0 1 7.6 4.49a7.32 7.32 0 0 1 2.58-1.1.69.69 0 0 0 .54-.69A1.27 1.27 0 0 1 12 1.46a1.26 1.26 0 0 1 1.28 1.24.72.72 0 0 0 .56.69 7.23 7.23 0 0 1 2.57 1.1 6 6 0 0 1 1.17 1 6.67 6.67 0 0 1 1.44 3.41 52.52 52.52 0 0 0 1.15 6.17A21.85 21.85 0 0 0 22 20H2zm8.49 3.37A2.07 2.07 0 0 0 12 24a2 2 0 0 0 1.5-.63 2 2 0 0 0 .63-1.48H9.86a2 2 0 0 0 .63 1.48z" fill-rule="evenodd"/>
</symbol><symbol id="icon-search" viewBox="0 0 15.97 15.99">
    <title>
        search
    </title>
    <path d="M15.8 15l-3.91-3.88a6.73 6.73 0 1 0-.82.82l3.91 3.88a.58.58 0 0 0 .82-.82zm-9-2.67a5.56 5.56 0 1 1 5.55-5.56 5.56 5.56 0 0 1-5.59 5.57z"/>
</symbol><symbol id="icon-services" viewBox="0 0 19 24">
    <title>
        services
    </title>
    <path d="M17.5 0h-16A1.5 1.5 0 0 0 0 1.5v21A1.5 1.5 0 0 0 1.5 24h16a1.5 1.5 0 0 0 1.5-1.5v-21A1.5 1.5 0 0 0 17.5 0zm.5 22.5a.5.5 0 0 1-.5.5h-16a.5.5 0 0 1-.5-.5v-21a.5.5 0 0 1 .5-.5h16a.5.5 0 0 1 .5.5v21zM3 9h13V7H3v2zm4-4h9V3H7v2zM3 21h13v-2H3v2zm0-4h13v-2H3v2zm0-4h13v-2H3v2z"/>
</symbol></svg>